:SAMPLES-PER-SECOND 30
:FRAME-RANGE 1-3358
:FULLY-SPECIFIED
:DEGREES
2309
root  38.4219 36.8599 29.0031 -178.56 -21.3407 -178.026
RightUpLeg  -25.8294 0.900012 -18.457
RightLeg  33.0794 -7.51623 -5.48244
RightFoot  -0.65115 -1.76988 18.7143
RightToes  -5.8209e-011 0 -3.6325e-017
Spine  16.5463 2.19436 -0.0584992
Spine1  -7.68894 2.7245 -3.33194
HEad  -11.5693 -14.2417 0.0141005
LeftShoulder1  0.0938683 3.05781 -14.077
LeftArm  -42.3701 3.17753 8.42052
LeftForeArm  -17.0811 -23.8746 -5.9194
LeftHand  0.292394 2.26794 -11.5709
RightShoulder  3.06169 4.58926 31.9597
RightArm  -22.6203 2.01352 2.1504
RightForeArm  -13.2026 4.12595 12.5424
RightHand  2.16175 6.85558 19.8746
LeftUpLeg  -14.7013 -3.07725 -3.92759
LeftLeg  41.4791 4.66154 4.80587
LeftFoot  -27.6887 0.474985 2.14616
LeftToes  -4.03819e-010 -8.71445e-011 8.52097e-011
2310
root  39.1916 36.2705 28.24 -179.334 -21.2925 -177.776
RightUpLeg  -24.5101 3.86699 -19.0618
RightLeg  25.3659 -5.27682 -2.94011
RightFoot  -2.19212 -1.89904 23.2451
RightToes  -5.8209e-011 0 -3.6325e-017
Spine  16.7199 2.26535 1.63529
Spine1  -5.93741 3.41165 -5.37694
HEad  -12.8862 -15.4826 -0.39192
LeftShoulder1  0.170855 2.73116 -15.2455
LeftArm  -43.2972 4.04848 6.49845
LeftForeArm  -11.2695 -28.2749 -6.68754
LeftHand  0.406371 0.873295 -10.6713
RightShoulder  4.18826 6.68097 35.221
RightArm  -27.6832 1.78417 3.12493
RightForeArm  -14.5424 2.59466 10.5105
RightHand  1.9182 6.7405 17.807
LeftUpLeg  -15.1925 0.0107951 -1.5244
LeftLeg  45.8298 2.25642 2.92314
LeftFoot  -30.8428 0.511363 1.89303
LeftToes  -4.03819e-010 -8.71445e-011 8.52097e-011
2311
root  39.9182 35.8161 27.3775 -179.581 -20.8802 -178.089
RightUpLeg  -26.4825 2.59804 -18.2555
RightLeg  30.9109 -2.27002 -1.70205
RightFoot  -6.80431 -1.13251 26.9309
RightToes  -5.8209e-011 0 -3.6325e-017
Spine  17.1466 2.21231 2.59225
Spine1  -5.53821 3.63459 -6.37572
HEad  -12.8457 -15.5499 -1.72907
LeftShoulder1  0.159954 2.83837 -17.335
LeftArm  -41.6689 5.17077 4.10853
LeftForeArm  -8.77332 -31.9068 -7.49238
LeftHand  0.43221 0.432126 -10.2556
RightShoulder  5.72993 9.52551 37.9829
RightArm  -32.6395 2.88982 4.10469
RightForeArm  -16.8398 -0.726771 8.25322
RightHand  1.6375 6.56945 15.4103
LeftUpLeg  -14.9599 0.822503 0.216161
LeftLeg  48.6758 1.20229 1.92334
LeftFoot  -33.3878 0.13951 -0.319033
LeftToes  -4.03819e-010 -8.71445e-011 8.52097e-011
2312
root  40.5685 35.6079 26.6172 -179.236 -20.6296 -178.377
RightUpLeg  -29.2793 0.284028 -16.6415
RightLeg  36.6891 -0.491291 -0.652012
RightFoot  -7.88684 -0.762162 23.1783
RightToes  -5.8209e-011 0 -3.6325e-017
Spine  17.124 1.70275 3.67553
Spine1  -5.38198 3.37296 -7.00369
HEad  -12.4473 -15.0013 -3.23981
LeftShoulder1  0.200568 2.74998 -20.0984
LeftArm  -37.7972 7.13251 1.20692
LeftForeArm  -9.42439 -33.6914 -8.01412
LeftHand  0.480456 0.151165 -10.7332
RightShoulder  7.13287 12.2193 39.2927
RightArm  -36.1875 5.25492 5.03246
RightForeArm  -19.9202 -3.04587 6.66666
RightHand  1.45316 6.20407 14.1039
LeftUpLeg  -15.0662 0.796429 1.56602
LeftLeg  50.2396 1.1274 1.9212
LeftFoot  -33.9234 -0.234761 -2.20214
LeftToes  -4.03819e-010 -8.71445e-011 8.52097e-011
2313
root  41.1106 35.7443 25.7112 -179.879 -21.6382 -178.47
RightUpLeg  -27.7807 -0.419084 -15.3752
RightLeg  38.316 -0.254484 -0.483646
RightFoot  -10.1891 -0.297149 22.3318
RightToes  -5.8209e-011 0 -3.6325e-017
Spine  16.9118 0.998785 4.57049
Spine1  -4.33187 2.74121 -6.55298
HEad  -12.169 -15.3919 -4.31809
LeftShoulder1  0.307973 2.43681 -22.5014
LeftArm  -31.7926 7.9009 -3.26512
LeftForeArm  -10.759 -31.3949 -7.45786
LeftHand  0.589746 -0.656201 -11.292
RightShoulder  7.67786 13.7009 38.569
RightArm  -36.4121 7.44422 5.72819
RightForeArm  -19.9021 -2.29114 6.9577
RightHand  1.38659 5.93667 13.7802
LeftUpLeg  -13.5274 0.869397 3.39306
LeftLeg  50.3402 0.0813488 0.570399
LeftFoot  -32.6148 -0.69397 -4.74091
LeftToes  -4.03819e-010 -8.71445e-011 8.52097e-011
2314
root  41.5575 36.0488 24.9043 -179.568 -23.363 -178.777
RightUpLeg  -26.2014 -2.35131 -14.4628
RightLeg  38.1954 0.080033 -0.202249
RightFoot  -11.5052 -0.0478657 21.4315
RightToes  -5.8209e-011 0 -3.6325e-017
Spine  16.3287 0.648561 5.54882
Spine1  -4.33184 2.3996 -5.7618
HEad  -10.463 -17.7683 -4.16215
LeftShoulder1  0.45659 1.9936 -23.9503
LeftArm  -22.3357 6.77542 -8.91184
LeftForeArm  -14.745 -26.5308 -6.43016
LeftHand  0.631973 -1.0697 -11.2775
RightShoulder  7.54015 13.9294 37.2386
RightArm  -33.4811 8.68873 5.53751
RightForeArm  -19.632 -0.257053 8.67309
RightHand  1.38833 5.36274 14.5644
LeftUpLeg  -13.8494 2.06241 5.25907
LeftLeg  51.1123 -1.94608 -2.12405
LeftFoot  -28.9388 -1.07544 -8.06189
LeftToes  -4.03819e-010 -8.71445e-011 8.52097e-011
2315
root  41.9236 36.5357 24.1753 -178.973 -24.7086 -179.15
RightUpLeg  -24.2669 -4.55547 -13.6787
RightLeg  36.2811 0.686567 0.279627
RightFoot  -11.6429 -0.0250937 20.5568
RightToes  -5.8209e-011 0 -3.6325e-017
Spine  15.6111 0.406083 6.58449
Spine1  -4.73072 2.30973 -6.14828
HEad  -9.07221 -20.4783 -3.46176
LeftShoulder1  0.646622 1.42771 -24.9133
LeftArm  -11.8505 5.984 -14.0254
LeftForeArm  -16.4333 -20.8017 -6.72387
LeftHand  0.605348 -1.9767 -9.3826
RightShoulder  7.33434 14.1679 35.5284
RightArm  -31.0237 9.64318 5.74251
RightForeArm  -18.3223 1.03941 9.93756
RightHand  1.28512 4.89053 14.115
LeftUpLeg  -14.7381 5.02483 7.22132
LeftLeg  51.7096 -4.48658 -5.61498
LeftFoot  -22.9277 -0.950656 -10.6984
LeftToes  -4.03819e-010 -8.71445e-011 8.52097e-011
